<?xml version="1.0" encoding="UTF-8" standalone="no"?>
<!DOCTYPE svg PUBLIC "-//W3C//DTD SVG 1.1//EN"
 "http://www.w3.org/Graphics/SVG/1.1/DTD/svg11.dtd">
<!-- Generated by graphviz version 14.0.2 (0)
 -->
<!-- Title: G Pages: 1 -->
<svg width="972pt" height="987pt"
 viewBox="0.00 0.00 972.00 987.00" xmlns="http://www.w3.org/2000/svg" xmlns:xlink="http://www.w3.org/1999/xlink">
<g id="graph0" class="graph" transform="scale(1 1) rotate(0) translate(43.2 943.4)">
<title>G</title>
<polygon fill="white" stroke="none" points="-43.2,43.2 -43.2,-943.4 929.2,-943.4 929.2,43.2 -43.2,43.2"/>
<g id="clust1" class="cluster">
<title>cluster_vscode</title>
<path fill="#eef2ff" stroke="#2563eb" d="M247.67,-267.8C247.67,-267.8 241.33,-267.8 241.33,-267.8 238.17,-267.8 235,-270.97 235,-274.13 235,-274.13 235,-885.87 235,-885.87 235,-889.03 238.17,-892.2 241.33,-892.2 241.33,-892.2 247.67,-892.2 247.67,-892.2 250.83,-892.2 254,-889.03 254,-885.87 254,-885.87 254,-274.13 254,-274.13 254,-270.97 250.83,-267.8 247.67,-267.8"/>
<text xml:space="preserve" text-anchor="middle" x="244.5" y="-875.6" font-family="Inter" font-size="14.00">VSCode Advanced Diff</text>
</g>
<g id="clust2" class="cluster">
<title>cluster_cdiff</title>
<path fill="#ecfdf5" stroke="#059669" d="M20,-8C20,-8 234,-8 234,-8 240,-8 246,-14 246,-20 246,-20 246,-744.2 246,-744.2 246,-750.2 240,-756.2 234,-756.2 234,-756.2 20,-756.2 20,-756.2 14,-756.2 8,-750.2 8,-744.2 8,-744.2 8,-20 8,-20 8,-14 14,-8 20,-8"/>
<text xml:space="preserve" text-anchor="middle" x="127" y="-739.6" font-family="Inter" font-size="14.00">c&#45;diff&#45;core port</text>
</g>
<!-- v1 -->
<g id="node1" class="node">
<title>v1</title>
<path fill="#dbeafe" stroke="#1d4ed8" d="M214.64,-861C214.64,-861 49.36,-861 49.36,-861 43.36,-861 37.36,-855 37.36,-849 37.36,-849 37.36,-836.2 37.36,-836.2 37.36,-830.2 43.36,-824.2 49.36,-824.2 49.36,-824.2 214.64,-824.2 214.64,-824.2 220.64,-824.2 226.64,-830.2 226.64,-836.2 226.64,-836.2 226.64,-849 226.64,-849 226.64,-855 220.64,-861 214.64,-861"/>
<text xml:space="preserve" text-anchor="middle" x="132" y="-846.2" font-family="Inter" font-size="12.00">LineSequence setup</text>
<text xml:space="preserve" text-anchor="middle" x="132" y="-831.8" font-family="Inter" font-size="12.00">(perfect hashing, boundary weights)</text>
</g>
<!-- v2 -->
<g id="node2" class="node">
<title>v2</title>
<path fill="#dbeafe" stroke="#1d4ed8" d="M138.33,-725C138.33,-725 27.67,-725 27.67,-725 21.67,-725 15.67,-719 15.67,-713 15.67,-713 15.67,-700.2 15.67,-700.2 15.67,-694.2 21.67,-688.2 27.67,-688.2 27.67,-688.2 138.33,-688.2 138.33,-688.2 144.33,-688.2 150.33,-694.2 150.33,-700.2 150.33,-700.2 150.33,-713 150.33,-713 150.33,-719 144.33,-725 138.33,-725"/>
<text xml:space="preserve" text-anchor="middle" x="83" y="-710.2" font-family="Inter" font-size="12.00">Algorithm choice</text>
<text xml:space="preserve" text-anchor="middle" x="83" y="-695.8" font-family="Inter" font-size="12.00">(DP vs Myers by length)</text>
</g>
<!-- v1&#45;&gt;v2 -->
<g id="edge1" class="edge">
<title>v1&#45;&gt;v2</title>
<path fill="none" stroke="#4b5563" stroke-width="1.6" d="M93.84,-823.97C93.84,-823.97 93.84,-735.86 93.84,-735.86"/>
<polygon fill="#4b5563" stroke="#4b5563" stroke-width="1.6" points="96.64,-735.86 93.84,-727.86 91.04,-735.86 96.64,-735.86"/>
</g>
<!-- c1 -->
<g id="node6" class="node">
<title>c1</title>
<path fill="#a7f3d0" stroke="#047857" d="M383.64,-725C383.64,-725 220.36,-725 220.36,-725 214.36,-725 208.36,-719 208.36,-713 208.36,-713 208.36,-700.2 208.36,-700.2 208.36,-694.2 214.36,-688.2 220.36,-688.2 220.36,-688.2 383.64,-688.2 383.64,-688.2 389.64,-688.2 395.64,-694.2 395.64,-700.2 395.64,-700.2 395.64,-713 395.64,-713 395.64,-719 389.64,-725 383.64,-725"/>
<text xml:space="preserve" text-anchor="middle" x="302" y="-710.2" font-family="Inter" font-size="12.00">line_sequence_create</text>
<text xml:space="preserve" text-anchor="middle" x="302" y="-695.8" font-family="Inter" font-size="12.00">(perfect hashing, boundary scoring)</text>
</g>
<!-- v1&#45;&gt;c1 -->
<g id="edge13" class="edge">
<title>v1&#45;&gt;c1</title>
<path fill="none" stroke="#7c3aed" stroke-width="2" stroke-dasharray="5,2" d="M217.5,-823.97C217.5,-823.97 217.5,-736.46 217.5,-736.46"/>
<polygon fill="#7c3aed" stroke="#7c3aed" stroke-width="2" points="220.3,-736.46 217.5,-728.46 214.7,-736.46 220.3,-736.46"/>
<text xml:space="preserve" text-anchor="middle" x="336.36" y="-771.3" font-family="Times,serif" font-size="11.00" fill="#5b21b6">sequence parity</text>
</g>
<!-- v3 -->
<g id="node3" class="node">
<title>v3</title>
<path fill="#dbeafe" stroke="#1d4ed8" d="M225.69,-601.2C225.69,-601.2 54.31,-601.2 54.31,-601.2 48.31,-601.2 42.31,-595.2 42.31,-589.2 42.31,-589.2 42.31,-562 42.31,-562 42.31,-556 48.31,-550 54.31,-550 54.31,-550 225.69,-550 225.69,-550 231.69,-550 237.69,-556 237.69,-562 237.69,-562 237.69,-589.2 237.69,-589.2 237.69,-595.2 231.69,-601.2 225.69,-601.2"/>
<text xml:space="preserve" text-anchor="middle" x="140" y="-586.4" font-family="Inter" font-size="12.00">Line diff execution</text>
<text xml:space="preserve" text-anchor="middle" x="140" y="-572" font-family="Inter" font-size="12.00">+ heuristics (optimizeSequenceDiffs)</text>
<text xml:space="preserve" text-anchor="middle" x="140" y="-557.6" font-family="Inter" font-size="12.00">+ micro gap pruning</text>
</g>
<!-- v2&#45;&gt;v3 -->
<g id="edge2" class="edge">
<title>v2&#45;&gt;v3</title>
<path fill="none" stroke="#4b5563" stroke-width="1.6" d="M78.32,-687.83C78.32,-687.83 78.32,-611.98 78.32,-611.98"/>
<polygon fill="#4b5563" stroke="#4b5563" stroke-width="1.6" points="81.12,-611.98 78.32,-603.98 75.52,-611.98 81.12,-611.98"/>
</g>
<!-- c2 -->
<g id="node7" class="node">
<title>c2</title>
<path fill="#a7f3d0" stroke="#047857" d="M1036.99,-725C1036.99,-725 735.01,-725 735.01,-725 729.01,-725 723.01,-719 723.01,-713 723.01,-713 723.01,-700.2 723.01,-700.2 723.01,-694.2 729.01,-688.2 735.01,-688.2 735.01,-688.2 1036.99,-688.2 1036.99,-688.2 1042.99,-688.2 1048.99,-694.2 1048.99,-700.2 1048.99,-700.2 1048.99,-713 1048.99,-713 1048.99,-719 1042.99,-725 1036.99,-725"/>
<text xml:space="preserve" text-anchor="middle" x="886" y="-710.2" font-family="Inter" font-size="12.00">compute_line_alignments</text>
<text xml:space="preserve" text-anchor="middle" x="886" y="-695.8" font-family="Inter" font-size="12.00">(DP vs Myers switch)</text>
</g>
<!-- v2&#45;&gt;c2 -->
<g id="edge14" class="edge">
<title>v2&#45;&gt;c2</title>
<path fill="none" stroke="#7c3aed" stroke-width="2" stroke-dasharray="5,2" d="M114.32,-687.78C114.32,-669.67 114.32,-645 114.32,-645 114.32,-645 758.29,-645 758.29,-645 758.29,-645 758.29,-676.76 758.29,-676.76"/>
<polygon fill="#7c3aed" stroke="#7c3aed" stroke-width="2" points="755.49,-676.76 758.29,-684.76 761.09,-676.76 755.49,-676.76"/>
<text xml:space="preserve" text-anchor="middle" x="414" y="-771.3" font-family="Times,serif" font-size="11.00" fill="#5b21b6">algorithm parity</text>
</g>
<!-- v4 -->
<g id="node4" class="node">
<title>v4</title>
<path fill="#dbeafe" stroke="#1d4ed8" d="M448.15,-450.8C448.15,-450.8 273.85,-450.8 273.85,-450.8 267.85,-450.8 261.85,-444.8 261.85,-438.8 261.85,-438.8 261.85,-411.6 261.85,-411.6 261.85,-405.6 267.85,-399.6 273.85,-399.6 273.85,-399.6 448.15,-399.6 448.15,-399.6 454.15,-399.6 460.15,-405.6 460.15,-411.6 460.15,-411.6 460.15,-438.8 460.15,-438.8 460.15,-444.8 454.15,-450.8 448.15,-450.8"/>
<text xml:space="preserve" text-anchor="middle" x="361" y="-436" font-family="Inter" font-size="12.00">Char refinement pipeline</text>
<text xml:space="preserve" text-anchor="middle" x="361" y="-421.6" font-family="Inter" font-size="12.00">(LinesSliceCharSequence, DP/Myers,</text>
<text xml:space="preserve" text-anchor="middle" x="361" y="-407.2" font-family="Inter" font-size="12.00">word/subword extension, heuristics)</text>
</g>
<!-- v3&#45;&gt;v4 -->
<g id="edge3" class="edge">
<title>v3&#45;&gt;v4</title>
<path fill="none" stroke="#4b5563" stroke-width="1.6" d="M237.97,-567C283.93,-567 328.75,-567 328.75,-567 328.75,-567 328.75,-461.63 328.75,-461.63"/>
<polygon fill="#4b5563" stroke="#4b5563" stroke-width="1.6" points="331.55,-461.63 328.75,-453.63 325.95,-461.63 331.55,-461.63"/>
</g>
<!-- c3 -->
<g id="node8" class="node">
<title>c3</title>
<path fill="#a7f3d0" stroke="#047857" d="M645.82,-450.8C645.82,-450.8 530.18,-450.8 530.18,-450.8 524.18,-450.8 518.18,-444.8 518.18,-438.8 518.18,-438.8 518.18,-411.6 518.18,-411.6 518.18,-405.6 524.18,-399.6 530.18,-399.6 530.18,-399.6 645.82,-399.6 645.82,-399.6 651.82,-399.6 657.82,-405.6 657.82,-411.6 657.82,-411.6 657.82,-438.8 657.82,-438.8 657.82,-444.8 651.82,-450.8 645.82,-450.8"/>
<text xml:space="preserve" text-anchor="middle" x="588" y="-436" font-family="Inter" font-size="12.00">optimize_sequence_diffs</text>
<text xml:space="preserve" text-anchor="middle" x="588" y="-421.6" font-family="Inter" font-size="12.00">&amp; remove_short_matches</text>
<text xml:space="preserve" text-anchor="middle" x="588" y="-407.2" font-family="Inter" font-size="12.00">(line heuristics)</text>
</g>
<!-- v3&#45;&gt;c3 -->
<g id="edge11" class="edge">
<title>v3&#45;&gt;c3</title>
<path fill="none" stroke="#7c3aed" stroke-width="2" stroke-dasharray="5,2" d="M238.04,-584C369.89,-584 588,-584 588,-584 588,-584 588,-462.09 588,-462.09"/>
<polygon fill="#7c3aed" stroke="#7c3aed" stroke-width="2" points="590.8,-462.09 588,-454.09 585.2,-462.09 590.8,-462.09"/>
<text xml:space="preserve" text-anchor="middle" x="431.91" y="-497.1" font-family="Times,serif" font-size="11.00" fill="#5b21b6">line heuristics parity</text>
</g>
<!-- v5 -->
<g id="node5" class="node">
<title>v5</title>
<path fill="#dbeafe" stroke="#1d4ed8" d="M225.97,-312.6C225.97,-312.6 28.03,-312.6 28.03,-312.6 22.03,-312.6 16.03,-306.6 16.03,-300.6 16.03,-300.6 16.03,-287.8 16.03,-287.8 16.03,-281.8 22.03,-275.8 28.03,-275.8 28.03,-275.8 225.97,-275.8 225.97,-275.8 231.97,-275.8 237.97,-281.8 237.97,-287.8 237.97,-287.8 237.97,-300.6 237.97,-300.6 237.97,-306.6 231.97,-312.6 225.97,-312.6"/>
<text xml:space="preserve" text-anchor="middle" x="127" y="-297.8" font-family="Inter" font-size="12.00">DefaultLinesDiffComputer.computeDiff</text>
<text xml:space="preserve" text-anchor="middle" x="127" y="-283.4" font-family="Inter" font-size="12.00">(consolidate edits, filler alignment, moves)</text>
</g>
<!-- v4&#45;&gt;v5 -->
<g id="edge4" class="edge">
<title>v4&#45;&gt;v5</title>
<path fill="none" stroke="#4b5563" stroke-width="1.6" d="M361,-399.28C361,-361.04 361,-294 361,-294 361,-294 248.6,-294 248.6,-294"/>
<polygon fill="#4b5563" stroke="#4b5563" stroke-width="1.6" points="248.6,-291.2 240.6,-294 248.6,-296.8 248.6,-291.2"/>
</g>
<!-- c4 -->
<g id="node9" class="node">
<title>c4</title>
<path fill="#a7f3d0" stroke="#047857" d="M931.15,-443.6C931.15,-443.6 840.85,-443.6 840.85,-443.6 834.85,-443.6 828.85,-437.6 828.85,-431.6 828.85,-431.6 828.85,-418.8 828.85,-418.8 828.85,-412.8 834.85,-406.8 840.85,-406.8 840.85,-406.8 931.15,-406.8 931.15,-406.8 937.15,-406.8 943.15,-412.8 943.15,-418.8 943.15,-418.8 943.15,-431.6 943.15,-431.6 943.15,-437.6 937.15,-443.6 931.15,-443.6"/>
<text xml:space="preserve" text-anchor="middle" x="886" y="-428.8" font-family="Inter" font-size="12.00">refine_diff_char_level</text>
<text xml:space="preserve" text-anchor="middle" x="886" y="-414.4" font-family="Inter" font-size="12.00">(char DP/Myers, word extension, heuristics)</text>
</g>
<!-- v4&#45;&gt;c4 -->
<g id="edge12" class="edge">
<title>v4&#45;&gt;c4</title>
<path fill="none" stroke="#7c3aed" stroke-width="2" stroke-dasharray="5,2" d="M427.89,-450.94C427.89,-472.58 427.89,-500 427.89,-500 427.89,-500 886,-500 886,-500 886,-500 886,-455.1 886,-455.1"/>
<polygon fill="#7c3aed" stroke="#7c3aed" stroke-width="2" points="888.8,-455.1 886,-447.1 883.2,-455.1 888.8,-455.1"/>
<text xml:space="preserve" text-anchor="middle" x="617" y="-497.1" font-family="Times,serif" font-size="11.00" fill="#5b21b6">char refinement parity</text>
</g>
<!-- c5 -->
<g id="node10" class="node">
<title>c5</title>
<path fill="#fde68a" stroke="#b45309" d="M203.48,-176.6C203.48,-176.6 50.52,-176.6 50.52,-176.6 44.52,-176.6 38.52,-170.6 38.52,-164.6 38.52,-164.6 38.52,-151.8 38.52,-151.8 38.52,-145.8 44.52,-139.8 50.52,-139.8 50.52,-139.8 203.48,-139.8 203.48,-139.8 209.48,-139.8 215.48,-145.8 215.48,-151.8 215.48,-151.8 215.48,-164.6 215.48,-164.6 215.48,-170.6 209.48,-176.6 203.48,-176.6"/>
<text xml:space="preserve" text-anchor="middle" x="127" y="-161.8" font-family="Inter" font-size="12.00" fill="#92400e">diff_core.c (planned)</text>
<text xml:space="preserve" text-anchor="middle" x="127" y="-147.4" font-family="Inter" font-size="12.00" fill="#92400e">(DefaultLinesDiffComputer port)</text>
</g>
<!-- v5&#45;&gt;c5 -->
<g id="edge10" class="edge">
<title>v5&#45;&gt;c5</title>
<path fill="none" stroke="#7c3aed" stroke-width="2" stroke-dasharray="5,2" d="M127,-275.57C127,-275.57 127,-188.06 127,-188.06"/>
<polygon fill="#7c3aed" stroke="#7c3aed" stroke-width="2" points="129.8,-188.06 127,-180.06 124.2,-188.06 129.8,-188.06"/>
<text xml:space="preserve" text-anchor="middle" x="153.72" y="-222.9" font-family="Times,serif" font-size="11.00" fill="#5b21b6">parity target</text>
</g>
<!-- c1&#45;&gt;c2 -->
<g id="edge5" class="edge">
<title>c1&#45;&gt;c2</title>
<path fill="none" stroke="#4b5563" stroke-width="1.6" d="M395.83,-707C395.83,-707 711.54,-707 711.54,-707"/>
<polygon fill="#4b5563" stroke="#4b5563" stroke-width="1.6" points="711.54,-709.8 719.54,-707 711.54,-704.2 711.54,-709.8"/>
</g>
<!-- c2&#45;&gt;c3 -->
<g id="edge6" class="edge">
<title>c2&#45;&gt;c3</title>
<path fill="none" stroke="#4b5563" stroke-width="1.6" d="M793.57,-687.93C793.57,-628.41 793.57,-447 793.57,-447 793.57,-447 668.59,-447 668.59,-447"/>
<polygon fill="#4b5563" stroke="#4b5563" stroke-width="1.6" points="668.59,-444.2 660.59,-447 668.59,-449.8 668.59,-444.2"/>
</g>
<!-- c3&#45;&gt;c4 -->
<g id="edge7" class="edge">
<title>c3&#45;&gt;c4</title>
<path fill="none" stroke="#4b5563" stroke-width="1.6" d="M658.24,-425C658.24,-425 818.29,-425 818.29,-425"/>
<polygon fill="#4b5563" stroke="#4b5563" stroke-width="1.6" points="818.29,-427.8 826.29,-425 818.29,-422.2 818.29,-427.8"/>
</g>
<!-- c4&#45;&gt;c5 -->
<g id="edge8" class="edge">
<title>c4&#45;&gt;c5</title>
<path fill="none" stroke="#4b5563" stroke-width="1.6" d="M886,-406.41C886,-345.59 886,-158 886,-158 886,-158 226.35,-158 226.35,-158"/>
<polygon fill="#4b5563" stroke="#4b5563" stroke-width="1.6" points="226.35,-155.2 218.35,-158 226.35,-160.8 226.35,-155.2"/>
</g>
<!-- c6 -->
<g id="node11" class="node">
<title>c6</title>
<path fill="#fde68a" stroke="#b45309" d="M205.98,-52.8C205.98,-52.8 48.02,-52.8 48.02,-52.8 42.02,-52.8 36.02,-46.8 36.02,-40.8 36.02,-40.8 36.02,-28 36.02,-28 36.02,-22 42.02,-16 48.02,-16 48.02,-16 205.98,-16 205.98,-16 211.98,-16 217.98,-22 217.98,-28 217.98,-28 217.98,-40.8 217.98,-40.8 217.98,-46.8 211.98,-52.8 205.98,-52.8"/>
<text xml:space="preserve" text-anchor="middle" x="127" y="-38" font-family="Inter" font-size="12.00" fill="#92400e">Filler alignment &amp; move detection</text>
<text xml:space="preserve" text-anchor="middle" x="127" y="-23.6" font-family="Inter" font-size="12.00" fill="#92400e">(type stubs only)</text>
</g>
<!-- c5&#45;&gt;c6 -->
<g id="edge9" class="edge">
<title>c5&#45;&gt;c6</title>
<path fill="none" stroke="#4b5563" stroke-width="1.6" d="M127,-139.4C127,-139.4 127,-63.4 127,-63.4"/>
<polygon fill="#4b5563" stroke="#4b5563" stroke-width="1.6" points="129.8,-63.4 127,-55.4 124.2,-63.4 129.8,-63.4"/>
</g>
</g>
</svg>
